<mxfile host="Electron" modified="2023-07-11T10:55:48.706Z" agent="Mozilla/5.0 (X11; Linux x86_64) AppleWebKit/537.36 (KHTML, like Gecko) draw.io/21.4.0 Chrome/106.0.5249.199 Electron/21.4.4 Safari/537.36" etag="rIrkEgxiMlr5ETGiZS0z" version="21.4.0" type="device">
  <diagram name="Page-1" id="bEtYPRKD9bZJMX1dU_jv">
    <mxGraphModel dx="819" dy="495" grid="1" gridSize="10" guides="1" tooltips="1" connect="1" arrows="1" fold="1" page="1" pageScale="1" pageWidth="850" pageHeight="1100" math="0" shadow="0">
      <root>
        <mxCell id="0" />
        <mxCell id="1" parent="0" />
        <mxCell id="KEMW6SLpUEOluqxyM7wa-51" value="" style="group" parent="1" vertex="1" connectable="0">
          <mxGeometry x="160" y="250" width="440" height="40" as="geometry" />
        </mxCell>
        <mxCell id="KEMW6SLpUEOluqxyM7wa-52" value="&lt;b&gt;&amp;nbsp; Legend&lt;/b&gt;" style="text;html=1;align=left;verticalAlign=middle;whiteSpace=wrap;rounded=1;fontFamily=Courier New;perimeterSpacing=6;shadow=0;fillColor=#f5f5f5;fontColor=#333333;strokeColor=#666666;" parent="KEMW6SLpUEOluqxyM7wa-51" vertex="1">
          <mxGeometry width="440" height="40" as="geometry" />
        </mxCell>
        <mxCell id="KEMW6SLpUEOluqxyM7wa-53" value="Keyword" style="rounded=1;whiteSpace=wrap;html=1;fillColor=#fad7ac;strokeColor=#b46504;arcSize=50;fontStyle=1;fontFamily=Courier New;perimeterSpacing=6;shadow=0;" parent="KEMW6SLpUEOluqxyM7wa-51" vertex="1">
          <mxGeometry x="90" y="5" width="70" height="30" as="geometry" />
        </mxCell>
        <mxCell id="KEMW6SLpUEOluqxyM7wa-54" value="&lt;span style=&quot;font-weight: 400;&quot;&gt;Class Identifier&lt;/span&gt;" style="rounded=1;whiteSpace=wrap;html=1;fillColor=#fad9d5;strokeColor=#ae4132;arcSize=50;fontStyle=1;fontFamily=Courier New;perimeterSpacing=6;shadow=0;" parent="KEMW6SLpUEOluqxyM7wa-51" vertex="1">
          <mxGeometry x="183.44" y="5" width="133.12" height="30" as="geometry" />
        </mxCell>
        <mxCell id="KEMW6SLpUEOluqxyM7wa-55" value="&lt;span style=&quot;font-weight: normal;&quot;&gt;Variable&lt;/span&gt;" style="rounded=1;whiteSpace=wrap;html=1;fillColor=#e1d5e7;strokeColor=#9673a6;arcSize=50;fontStyle=1;fontFamily=Courier New;perimeterSpacing=6;shadow=0;" parent="KEMW6SLpUEOluqxyM7wa-51" vertex="1">
          <mxGeometry x="341.88" y="5" width="80" height="30" as="geometry" />
        </mxCell>
        <mxCell id="MauK7lyqmDnbx4bMOs45-2" style="edgeStyle=orthogonalEdgeStyle;shape=connector;rounded=1;orthogonalLoop=1;jettySize=auto;html=1;exitX=1;exitY=0.5;exitDx=0;exitDy=0;entryX=0;entryY=0.5;entryDx=0;entryDy=0;labelBackgroundColor=default;strokeColor=#4F4F4F;strokeWidth=2;fontFamily=Helvetica;fontSize=12;fontColor=default;endArrow=none;endFill=0;" edge="1" parent="1" source="KEMW6SLpUEOluqxyM7wa-8" target="KEMW6SLpUEOluqxyM7wa-9">
          <mxGeometry relative="1" as="geometry" />
        </mxCell>
        <mxCell id="MauK7lyqmDnbx4bMOs45-21" style="edgeStyle=orthogonalEdgeStyle;shape=connector;rounded=1;orthogonalLoop=1;jettySize=auto;html=1;exitX=0;exitY=0.5;exitDx=0;exitDy=0;labelBackgroundColor=default;strokeColor=#4F4F4F;strokeWidth=2;fontFamily=Helvetica;fontSize=12;fontColor=default;endArrow=none;endFill=0;" edge="1" parent="1" source="KEMW6SLpUEOluqxyM7wa-8">
          <mxGeometry relative="1" as="geometry">
            <mxPoint x="30" y="133.8" as="targetPoint" />
          </mxGeometry>
        </mxCell>
        <mxCell id="KEMW6SLpUEOluqxyM7wa-8" value="&lt;p&gt;&lt;font face=&quot;Courier New&quot;&gt;locations:&lt;/font&gt;&lt;/p&gt;" style="rounded=1;whiteSpace=wrap;html=1;arcSize=50;fillColor=#fad7ac;strokeColor=#b46504;fontStyle=1" parent="1" vertex="1">
          <mxGeometry x="94.57000000000002" y="120.02999999999997" width="80" height="27.5" as="geometry" />
        </mxCell>
        <mxCell id="MauK7lyqmDnbx4bMOs45-19" style="edgeStyle=orthogonalEdgeStyle;shape=connector;rounded=1;orthogonalLoop=1;jettySize=auto;html=1;exitX=1;exitY=0.5;exitDx=0;exitDy=0;entryX=0;entryY=0.5;entryDx=0;entryDy=0;labelBackgroundColor=default;strokeColor=#4F4F4F;strokeWidth=2;fontFamily=Helvetica;fontSize=12;fontColor=default;endArrow=none;endFill=0;" edge="1" parent="1" source="KEMW6SLpUEOluqxyM7wa-9" target="MauK7lyqmDnbx4bMOs45-9">
          <mxGeometry relative="1" as="geometry" />
        </mxCell>
        <mxCell id="KEMW6SLpUEOluqxyM7wa-9" value="&lt;p&gt;&lt;font face=&quot;Courier New&quot;&gt;&lt;span style=&quot;font-weight: normal;&quot;&gt;location-keyname:&lt;/span&gt;&lt;/font&gt;&lt;/p&gt;" style="rounded=1;whiteSpace=wrap;html=1;arcSize=50;fillColor=#fad9d5;strokeColor=#ae4132;fontStyle=1" parent="1" vertex="1">
          <mxGeometry x="200" y="120.02999999999997" width="160" height="27.5" as="geometry" />
        </mxCell>
        <mxCell id="KEMW6SLpUEOluqxyM7wa-11" value="" style="edgeStyle=orthogonalEdgeStyle;shape=connector;rounded=1;orthogonalLoop=1;jettySize=auto;html=1;labelBackgroundColor=default;strokeColor=#4F4F4F;strokeWidth=2;fontFamily=Helvetica;fontSize=12;fontColor=default;endArrow=none;endFill=0;" parent="1" edge="1">
          <mxGeometry relative="1" as="geometry">
            <mxPoint x="180" y="134" as="sourcePoint" />
            <mxPoint x="180" y="134" as="targetPoint" />
            <Array as="points">
              <mxPoint x="180" y="134" />
              <mxPoint x="180" y="134" />
            </Array>
          </mxGeometry>
        </mxCell>
        <mxCell id="KEMW6SLpUEOluqxyM7wa-38" value="" style="endArrow=doubleBlock;html=1;rounded=1;labelBackgroundColor=default;strokeColor=#4F4F4F;strokeWidth=2;fontFamily=Helvetica;fontSize=12;fontColor=default;shape=connector;endFill=1;" parent="1" edge="1">
          <mxGeometry width="50" height="50" relative="1" as="geometry">
            <mxPoint x="30.000000000000007" y="133.59" as="sourcePoint" />
            <mxPoint x="70" y="133.98" as="targetPoint" />
          </mxGeometry>
        </mxCell>
        <mxCell id="MauK7lyqmDnbx4bMOs45-4" value="" style="group" vertex="1" connectable="0" parent="1">
          <mxGeometry x="230" y="169.99999999999997" width="190" height="28.5" as="geometry" />
        </mxCell>
        <mxCell id="MauK7lyqmDnbx4bMOs45-10" style="edgeStyle=orthogonalEdgeStyle;shape=connector;rounded=1;orthogonalLoop=1;jettySize=auto;html=1;exitX=1;exitY=0.5;exitDx=0;exitDy=0;labelBackgroundColor=default;strokeColor=#4F4F4F;strokeWidth=2;fontFamily=Helvetica;fontSize=12;fontColor=default;endArrow=none;endFill=0;" edge="1" parent="MauK7lyqmDnbx4bMOs45-4" source="KEMW6SLpUEOluqxyM7wa-14">
          <mxGeometry relative="1" as="geometry">
            <mxPoint x="470" y="14.000000000000028" as="targetPoint" />
          </mxGeometry>
        </mxCell>
        <mxCell id="KEMW6SLpUEOluqxyM7wa-14" value="&lt;p&gt;&lt;font face=&quot;Courier New&quot;&gt;&lt;span style=&quot;font-weight: normal;&quot;&gt;location name&lt;/span&gt;&lt;/font&gt;&lt;/p&gt;" style="rounded=1;whiteSpace=wrap;html=1;arcSize=50;fillColor=#e1d5e7;strokeColor=#9673a6;fontStyle=1" parent="MauK7lyqmDnbx4bMOs45-4" vertex="1">
          <mxGeometry x="70" width="120" height="27.5" as="geometry" />
        </mxCell>
        <mxCell id="KEMW6SLpUEOluqxyM7wa-15" style="edgeStyle=orthogonalEdgeStyle;shape=connector;rounded=1;orthogonalLoop=1;jettySize=auto;html=1;exitX=1;exitY=0.5;exitDx=0;exitDy=0;entryX=0;entryY=0.5;entryDx=0;entryDy=0;labelBackgroundColor=default;strokeColor=#4F4F4F;strokeWidth=2;fontFamily=Helvetica;fontSize=12;fontColor=default;endArrow=none;endFill=0;" parent="MauK7lyqmDnbx4bMOs45-4" source="KEMW6SLpUEOluqxyM7wa-16" target="KEMW6SLpUEOluqxyM7wa-14" edge="1">
          <mxGeometry relative="1" as="geometry" />
        </mxCell>
        <mxCell id="KEMW6SLpUEOluqxyM7wa-16" value="&lt;p&gt;&lt;font face=&quot;Courier New&quot;&gt;name:&lt;/font&gt;&lt;/p&gt;" style="rounded=1;whiteSpace=wrap;html=1;arcSize=50;fillColor=#fad7ac;strokeColor=#b46504;fontStyle=1" parent="MauK7lyqmDnbx4bMOs45-4" vertex="1">
          <mxGeometry y="1" width="60" height="27.5" as="geometry" />
        </mxCell>
        <mxCell id="MauK7lyqmDnbx4bMOs45-5" value="" style="group" vertex="1" connectable="0" parent="1">
          <mxGeometry x="480" y="200" width="138" height="28.5" as="geometry" />
        </mxCell>
        <mxCell id="0CUz0YX_aPWi5cBz1GWe-1" value="&lt;p&gt;&lt;font face=&quot;Courier New&quot;&gt;ip:&lt;/font&gt;&lt;/p&gt;" style="rounded=1;whiteSpace=wrap;html=1;arcSize=50;fillColor=#fad7ac;strokeColor=#b46504;fontStyle=1" parent="MauK7lyqmDnbx4bMOs45-5" vertex="1">
          <mxGeometry width="52" height="27.5" as="geometry" />
        </mxCell>
        <mxCell id="0CUz0YX_aPWi5cBz1GWe-2" value="&lt;p&gt;&lt;font face=&quot;Courier New&quot;&gt;&lt;span style=&quot;font-weight: normal;&quot;&gt;address&lt;/span&gt;&lt;/font&gt;&lt;/p&gt;" style="rounded=1;whiteSpace=wrap;html=1;arcSize=50;fillColor=#e1d5e7;strokeColor=#9673a6;fontStyle=1" parent="MauK7lyqmDnbx4bMOs45-5" vertex="1">
          <mxGeometry x="63" y="1" width="75" height="27.5" as="geometry" />
        </mxCell>
        <mxCell id="0CUz0YX_aPWi5cBz1GWe-9" style="edgeStyle=orthogonalEdgeStyle;shape=connector;rounded=1;jumpStyle=none;orthogonalLoop=1;jettySize=auto;html=1;exitX=1;exitY=0.5;exitDx=0;exitDy=0;entryX=0;entryY=0.5;entryDx=0;entryDy=0;labelBackgroundColor=default;strokeColor=#4F4F4F;strokeWidth=2;fontFamily=Helvetica;fontSize=12;fontColor=default;startArrow=none;startFill=0;endArrow=none;endFill=0;elbow=vertical;" parent="MauK7lyqmDnbx4bMOs45-5" source="0CUz0YX_aPWi5cBz1GWe-1" target="0CUz0YX_aPWi5cBz1GWe-2" edge="1">
          <mxGeometry relative="1" as="geometry" />
        </mxCell>
        <mxCell id="MauK7lyqmDnbx4bMOs45-6" value="" style="group" vertex="1" connectable="0" parent="1">
          <mxGeometry x="370" y="119.52999999999997" width="190" height="28.5" as="geometry" />
        </mxCell>
        <mxCell id="MauK7lyqmDnbx4bMOs45-9" value="&lt;p&gt;&lt;font face=&quot;Courier New&quot;&gt;location-identifier:&lt;/font&gt;&lt;/p&gt;" style="rounded=1;whiteSpace=wrap;html=1;arcSize=50;fillColor=#fad7ac;strokeColor=#b46504;fontStyle=1" vertex="1" parent="MauK7lyqmDnbx4bMOs45-6">
          <mxGeometry y="1" width="160" height="27.5" as="geometry" />
        </mxCell>
        <mxCell id="MauK7lyqmDnbx4bMOs45-17" style="edgeStyle=orthogonalEdgeStyle;shape=connector;rounded=1;orthogonalLoop=1;jettySize=auto;html=1;exitX=1;exitY=0.5;exitDx=0;exitDy=0;entryX=0;entryY=0.5;entryDx=0;entryDy=0;labelBackgroundColor=default;strokeColor=#4F4F4F;strokeWidth=2;fontFamily=Helvetica;fontSize=12;fontColor=default;endArrow=none;endFill=0;" edge="1" parent="1" source="MauK7lyqmDnbx4bMOs45-7" target="KEMW6SLpUEOluqxyM7wa-16">
          <mxGeometry relative="1" as="geometry">
            <Array as="points">
              <mxPoint x="650" y="131" />
              <mxPoint x="650" y="133" />
              <mxPoint x="680" y="133" />
              <mxPoint x="680" y="160" />
              <mxPoint x="210" y="160" />
              <mxPoint x="210" y="185" />
            </Array>
          </mxGeometry>
        </mxCell>
        <mxCell id="MauK7lyqmDnbx4bMOs45-7" value="&lt;p&gt;&lt;font face=&quot;Courier New&quot;&gt;&lt;span style=&quot;font-weight: normal;&quot;&gt;location-keyname&lt;/span&gt;&lt;/font&gt;&lt;/p&gt;" style="rounded=1;whiteSpace=wrap;html=1;arcSize=50;fillColor=#e1d5e7;strokeColor=#9673a6;fontStyle=1" vertex="1" parent="1">
          <mxGeometry x="540" y="119.53" width="130" height="27.5" as="geometry" />
        </mxCell>
        <mxCell id="MauK7lyqmDnbx4bMOs45-8" style="edgeStyle=orthogonalEdgeStyle;shape=connector;rounded=1;orthogonalLoop=1;jettySize=auto;html=1;exitX=1;exitY=0.5;exitDx=0;exitDy=0;entryX=0;entryY=0.5;entryDx=0;entryDy=0;labelBackgroundColor=default;strokeColor=#4F4F4F;strokeWidth=2;fontFamily=Helvetica;fontSize=12;fontColor=default;endArrow=none;endFill=0;" edge="1" parent="1" source="MauK7lyqmDnbx4bMOs45-9" target="MauK7lyqmDnbx4bMOs45-7">
          <mxGeometry relative="1" as="geometry" />
        </mxCell>
        <mxCell id="MauK7lyqmDnbx4bMOs45-11" style="edgeStyle=orthogonalEdgeStyle;shape=connector;rounded=1;orthogonalLoop=1;jettySize=auto;html=1;exitX=1;exitY=0.5;exitDx=0;exitDy=0;entryX=0;entryY=0.5;entryDx=0;entryDy=0;labelBackgroundColor=default;strokeColor=#4F4F4F;strokeWidth=2;fontFamily=Helvetica;fontSize=12;fontColor=default;endArrow=none;endFill=0;" edge="1" parent="1" source="KEMW6SLpUEOluqxyM7wa-14" target="0CUz0YX_aPWi5cBz1GWe-1">
          <mxGeometry relative="1" as="geometry" />
        </mxCell>
        <mxCell id="MauK7lyqmDnbx4bMOs45-16" style="edgeStyle=orthogonalEdgeStyle;shape=connector;rounded=1;orthogonalLoop=1;jettySize=auto;html=1;exitX=1;exitY=0.5;exitDx=0;exitDy=0;labelBackgroundColor=default;strokeColor=#4F4F4F;strokeWidth=2;fontFamily=Helvetica;fontSize=12;fontColor=default;endArrow=none;endFill=0;" edge="1" parent="1" source="0CUz0YX_aPWi5cBz1GWe-2">
          <mxGeometry relative="1" as="geometry">
            <mxPoint x="720" y="184" as="targetPoint" />
            <Array as="points">
              <mxPoint x="650" y="215" />
              <mxPoint x="650" y="184" />
            </Array>
          </mxGeometry>
        </mxCell>
        <mxCell id="MauK7lyqmDnbx4bMOs45-18" style="edgeStyle=orthogonalEdgeStyle;shape=connector;rounded=1;orthogonalLoop=1;jettySize=auto;html=1;exitX=1;exitY=0.5;exitDx=0;exitDy=0;entryX=0;entryY=0.5;entryDx=0;entryDy=0;labelBackgroundColor=default;strokeColor=#4F4F4F;strokeWidth=2;fontFamily=Helvetica;fontSize=12;fontColor=default;endArrow=none;endFill=0;" edge="1" parent="1" source="KEMW6SLpUEOluqxyM7wa-14" target="KEMW6SLpUEOluqxyM7wa-9">
          <mxGeometry relative="1" as="geometry">
            <Array as="points">
              <mxPoint x="690" y="184" />
              <mxPoint x="690" y="100" />
              <mxPoint x="180" y="100" />
              <mxPoint x="180" y="134" />
            </Array>
          </mxGeometry>
        </mxCell>
        <mxCell id="MauK7lyqmDnbx4bMOs45-20" style="edgeStyle=orthogonalEdgeStyle;shape=connector;rounded=1;orthogonalLoop=1;jettySize=auto;html=1;exitX=1;exitY=0.5;exitDx=0;exitDy=0;entryX=0;entryY=0.5;entryDx=0;entryDy=0;labelBackgroundColor=default;strokeColor=#4F4F4F;strokeWidth=2;fontFamily=Helvetica;fontSize=12;fontColor=default;endArrow=none;endFill=0;" edge="1" parent="1" source="KEMW6SLpUEOluqxyM7wa-14" target="KEMW6SLpUEOluqxyM7wa-8">
          <mxGeometry relative="1" as="geometry">
            <Array as="points">
              <mxPoint x="690" y="184" />
              <mxPoint x="690" y="100" />
              <mxPoint x="75" y="100" />
              <mxPoint x="75" y="134" />
            </Array>
          </mxGeometry>
        </mxCell>
        <mxCell id="MauK7lyqmDnbx4bMOs45-22" value="" style="endArrow=doubleBlock;html=1;rounded=1;labelBackgroundColor=default;strokeColor=#4F4F4F;strokeWidth=2;fontFamily=Helvetica;fontSize=12;fontColor=default;shape=connector;endFill=1;" edge="1" parent="1">
          <mxGeometry width="50" height="50" relative="1" as="geometry">
            <mxPoint x="690" y="184.05" as="sourcePoint" />
            <mxPoint x="730" y="184.44" as="targetPoint" />
          </mxGeometry>
        </mxCell>
        <mxCell id="MauK7lyqmDnbx4bMOs45-23" value="" style="endArrow=classic;html=1;rounded=1;labelBackgroundColor=default;strokeColor=#4F4F4F;strokeWidth=2;fontFamily=Helvetica;fontSize=12;fontColor=default;shape=connector;" edge="1" parent="1">
          <mxGeometry width="50" height="50" relative="1" as="geometry">
            <mxPoint x="450" y="160" as="sourcePoint" />
            <mxPoint x="440" y="160" as="targetPoint" />
          </mxGeometry>
        </mxCell>
        <mxCell id="MauK7lyqmDnbx4bMOs45-24" value="" style="endArrow=classic;html=1;rounded=1;labelBackgroundColor=default;strokeColor=#4F4F4F;strokeWidth=2;fontFamily=Helvetica;fontSize=12;fontColor=default;shape=connector;" edge="1" parent="1">
          <mxGeometry width="50" height="50" relative="1" as="geometry">
            <mxPoint x="450" y="100" as="sourcePoint" />
            <mxPoint x="440" y="100" as="targetPoint" />
          </mxGeometry>
        </mxCell>
        <mxCell id="MauK7lyqmDnbx4bMOs45-25" value="" style="endArrow=classic;html=1;rounded=1;labelBackgroundColor=default;strokeColor=#4F4F4F;strokeWidth=2;fontFamily=Helvetica;fontSize=12;fontColor=default;shape=connector;" edge="1" parent="1">
          <mxGeometry width="50" height="50" relative="1" as="geometry">
            <mxPoint x="142.29" y="100" as="sourcePoint" />
            <mxPoint x="126.85999999999999" y="100" as="targetPoint" />
          </mxGeometry>
        </mxCell>
      </root>
    </mxGraphModel>
  </diagram>
</mxfile>
